PathFileType	4	(X/Y/Z)	/Users/itak/Documents/Research/Walk-IL/dataset/trc/00286_00010.trc
DataRate	CameraRate	NumFrames	NumMarkers	Units	OrigDataRate	OrigDataStartFrame	OrigNumFrames
100.000000	100.000000	4	54	mm	100.000000	81	648
Frame#	Time	RPSI			LPSI			L3			STRN			T10			C7			CLAV			RBAK			LBAK			LSHO			LUPA			LAEL			LAOL			LWTS			LWPS			LFRA			LIFD			LHPS			LHTS			RSHO			RUPA			RAEL			RAOL			RWTS			RWPS			RFRA			RIFD			RHTS			RHPS			RBHD			LFHD			RFHD			LBHD			LHIP			RASI			LASI			LKNE			LTHI			LANK			LTIP			LTOE			LMT1			LMT5			LHEE			RKNE			RANK			RTIP			RTOE			RMT1			RMT5			RHEE			RHIP			RTHI			*53			
		X1	Y1	Z1	X2	Y2	Z2	X3	Y3	Z3	X4	Y4	Z4	X5	Y5	Z5	X6	Y6	Z6	X7	Y7	Z7	X8	Y8	Z8	X9	Y9	Z9	X10	Y10	Z10	X11	Y11	Z11	X12	Y12	Z12	X13	Y13	Z13	X14	Y14	Z14	X15	Y15	Z15	X16	Y16	Z16	X17	Y17	Z17	X18	Y18	Z18	X19	Y19	Z19	X20	Y20	Z20	X21	Y21	Z21	X22	Y22	Z22	X23	Y23	Z23	X24	Y24	Z24	X25	Y25	Z25	X26	Y26	Z26	X27	Y27	Z27	X28	Y28	Z28	X29	Y29	Z29	X30	Y30	Z30	X31	Y31	Z31	X32	Y32	Z32	X33	Y33	Z33	X34	Y34	Z34	X35	Y35	Z35	X36	Y36	Z36	X37	Y37	Z37	X38	Y38	Z38	X39	Y39	Z39	X40	Y40	Z40	X41	Y41	Z41	X42	Y42	Z42	X43	Y43	Z43	X44	Y44	Z44	X45	Y45	Z45	X46	Y46	Z46	X47	Y47	Z47	X48	Y48	Z48	X49	Y49	Z49	X50	Y50	Z50	X51	Y51	Z51	X52	Y52	Z52	X53	Y53	Z53	X54	Y54	Z54	

82	0.8100000000000001	64.65235137939453	992.9229736328125	1339.116333007812	71.24054718017578	972.402587890625	1165.918701171875	91.32247161865234	1059.986450195312	1257.110229492188	359.4466857910156	1207.98583984375	1233.361450195312	88.23416900634766	1181.98583984375	1261.322998046875	166.0598602294922	1416.412353515625	1236.379516601562	306.3844299316406	1312.751831054688	1231.396484375	101.4888000488281	1290.495483398438	1322.914184570312	132.9590454101562	1381.802978515625	1136.131591796875	218.1600799560547	1374.68212890625	1074.400390625	147.3196258544922	1271.828979492188	1011.185485839844	86.21337127685547	1077.913940429688	1006.233032226562	36.80058288574219	1083.27587890625	1077.125610351562	121.0360107421875	845.2999267578125	1051.299194335938	73.51325225830078	839.9297485351562	996.914306640625	72.52661895751953	973.711181640625	1000.295227050781	85.46830749511719	662.0106201171875	1061.723876953125	60.24589538574219	752.830322265625	1004.26416015625	118.6400146484375	743.898681640625	1033.148071289062	247.5388641357422	1384.625610351562	1387.856567382812	246.1468505859375	1327.176025390625	1457.066772460938	266.5824890136719	1057.002563476562	1509.612182617188	208.7428588867188	1047.738037109375	1435.151977539062	379.0536804199219	862.1364135742188	1396.402587890625	367.0210876464844	840.7484130859375	1477.44775390625	304.4340515136719	992.8175048828125	1505.97412109375	411.3348083496094	680.485107421875	1366.648559570312	431.4488525390625	751.7743530273438	1384.940063476562	406.9762268066406	738.4116821289062	1449.972045898438	225.3744049072266	1571.461791992188	1301.146118164062	367.8220520019531	1583.200073242188	1144.687377929688	388.3172302246094	1586.7548828125	1234.853393554688	192.9867248535156	1555.97509765625	1159.63330078125	145.5691986083984	925.83349609375	1076.303100585938	282.0813293457031	935.3421020507812	1385.189453125	280.5359802246094	935.6309204101562	1133.950073242188	405.5999755859375	517.9791259765625	1111.505126953125	328.8247375488281	640.2855224609375	1085.889526367188	331.3894958496094	66.43935394287109	1136.560424804688	373.2737731933594	283.8427429199219	1113.541870117188	525.2694091796875	73.31676483154297	1214.35791015625	455.732421875	53.86787033081055	1247.265625	453.8450012207031	65.05067443847656	1137.94287109375	279.5776672363281	58.92220306396484	1189.75390625	127.8855133056641	464.4955444335938	1399.828857421875	-39.84390258789062	45.97916793823242	1351.662353515625	109.0558929443359	340.3958435058594	1381.697631835938	158.5828552246094	43.54018783569336	1306.192016601562	102.7080383300781	41.84037017822266	1264.519409179688	63.61794281005859	36.72926712036133	1375.52197265625	-91.02373504638672	45.33005523681641	1299.261352539062	157.4176483154297	938.0430908203125	1448.136962890625	192.5774993896484	720.6300048828125	1440.661743164062	nan	nan	nan	
83	0.8200000000000001	70.66604614257812	992.0591430664062	1338.236694335938	77.36374664306641	971.2977905273438	1165.162353515625	97.39142608642578	1058.774658203125	1256.6904296875	364.9780883789062	1206.9267578125	1232.317626953125	94.46356201171875	1180.512084960938	1261.2119140625	171.5065002441406	1415.105834960938	1235.922119140625	311.8108520507812	1311.6455078125	1230.341796875	107.4468154907227	1289.173461914062	1322.776123046875	137.87158203125	1380.322509765625	1135.922119140625	222.5997924804688	1373.363037109375	1073.683715820312	151.1634826660156	1270.671875	1011.020080566406	89.11746978759766	1076.9853515625	1007.236450195312	40.39815902709961	1082.828369140625	1078.56787109375	121.3659362792969	843.8684692382812	1053.217651367188	73.66849517822266	838.8834838867188	998.9830932617188	74.33306884765625	972.7943725585938	1001.744995117188	83.08857727050781	661.1721801757812	1064.8466796875	59.09066009521484	752.0088500976562	1006.861694335938	117.1723785400391	742.2891235351562	1035.740844726562	253.7293701171875	1383.63232421875	1387.02587890625	252.8439483642578	1326.21337890625	1456.242065429688	275.2308654785156	1056.01708984375	1508.475952148438	217.4523315429688	1046.629028320312	1433.988525390625	390.25390625	865.1071166992188	1391.32763671875	379.5942077636719	842.1044921875	1472.058349609375	314.1456604003906	992.3632202148438	1503.724487304688	425.8983764648438	684.6506958007812	1358.046630859375	444.7306518554688	755.923828125	1377.283325195312	421.2598266601562	741.0115356445312	1442.357421875	231.6072845458984	1570.546875	1299.85498046875	373.1152954101562	1581.309448242188	1142.526245117188	394.2264099121094	1585.126586914062	1232.586303710938	198.3420562744141	1554.720092773438	1158.59716796875	151.6581115722656	924.5635986328125	1075.64501953125	287.8380737304688	934.0853881835938	1384.611694335938	286.7162780761719	934.351318359375	1133.230590820312	411.3139038085938	516.865234375	1111.510009765625	334.6048583984375	639.0021362304688	1085.357788085938	357.5072326660156	62.61253356933594	1136.688842773438	388.5821838378906	281.5921936035156	1113.329833984375	551.785400390625	76.96192932128906	1212.951171875	483.1716003417969	54.88933563232422	1246.317016601562	479.9589233398438	66.28594970703125	1136.965942382812	306.4854431152344	52.80575942993164	1190.119262695312	130.1944580078125	463.8482055664062	1399.310791015625	-39.88471221923828	46.17657470703125	1351.536254882812	110.497688293457	339.8034057617188	1381.258056640625	158.5909576416016	43.5518913269043	1306.188354492188	102.8063278198242	41.84623718261719	1264.494384765625	63.70335006713867	36.82498168945312	1375.502197265625	-91.06321716308594	45.43654251098633	1299.228881835938	163.2505798339844	937.0107421875	1447.3310546875	197.0285339355469	719.4739379882812	1439.906860351562	nan	nan	nan	
84	0.8300000000000001	76.83492279052734	991.1021728515625	1337.218627929688	83.6956787109375	970.048583984375	1164.282348632812	103.6378555297852	1057.376098632812	1256.137084960938	370.6511840820312	1205.75390625	1231.177124023438	100.8496704101562	1178.768310546875	1261.024780273438	177.0587005615234	1413.65625	1235.35791015625	317.3779296875	1310.424438476562	1229.190551757812	113.5592346191406	1287.708740234375	1322.495971679688	142.9123229980469	1378.684448242188	1135.6201171875	227.1569519042969	1371.9287109375	1072.876708984375	155.1706237792969	1269.37841796875	1010.779174804688	92.23465728759766	1075.920654296875	1008.172180175781	44.24018096923828	1082.229370117188	1079.950439453125	121.9357757568359	842.3296508789062	1055.087768554688	74.07634735107422	837.7353515625	1001.007202148438	76.36766815185547	971.7509765625	1003.13671875	80.93068695068359	660.282470703125	1067.957763671875	58.17300033569336	751.1085815429688	1009.43359375	115.9267654418945	740.6019897460938	1038.311767578125	260.0121459960938	1382.488525390625	1386.088500976562	259.6331176757812	1325.123413085938	1455.322265625	283.9227600097656	1054.91552734375	1507.303588867188	226.1955413818359	1045.405029296875	1432.794555664062	401.3744506835938	868.1246337890625	1386.176147460938	392.1461791992188	843.52490234375	1466.579956054688	323.89990234375	991.8509521484375	1501.408935546875	440.3553771972656	689.0263671875	1349.300170898438	457.9244079589844	760.264404296875	1369.544677734375	435.4742431640625	743.7457275390625	1434.595336914062	237.8834228515625	1569.518798828125	1298.457885742188	378.4573059082031	1579.3388671875	1140.286010742188	400.1734008789062	1583.431640625	1230.2275390625	203.7537078857422	1553.306518554688	1157.474609375	157.9895172119141	923.0812377929688	1074.924560546875	293.7152404785156	932.73974609375	1384.067016601562	293.1355895996094	932.8717651367188	1132.489135742188	416.8636474609375	515.356201171875	1111.410278320312	340.2848815917969	637.3472900390625	1084.750366210938	383.6050415039062	59.41621398925781	1136.46240234375	403.7805786132812	279.4866638183594	1112.862426757812	577.9392700195312	81.09123992919922	1211.306640625	510.2908935546875	56.58294296264648	1245.078857421875	505.8206787109375	68.02107238769531	1135.684326171875	333.3814697265625	47.38829040527344	1190.110961914062	132.5713043212891	463.1746215820312	1398.814819335938	-39.92076873779297	46.37550354003906	1351.4296875	111.9931259155273	339.1802062988281	1380.829223632812	158.5973052978516	43.55662536621094	1306.192260742188	102.875846862793	41.82548522949219	1264.45458984375	63.78057861328125	36.90012741088867	1375.479614257812	-91.10350799560547	45.54780960083008	1299.210083007812	169.1953735351562	935.915283203125	1446.450927734375	201.5352172851562	718.2750854492188	1439.138549804688	nan	nan	nan	
85	0.84	83.16428375244141	990.055419921875	1336.056274414062	90.26273345947266	968.6509399414062	1163.265258789062	110.0623321533203	1055.816772460938	1255.43603515625	376.4721374511719	1204.461181640625	1229.941650390625	107.3305587768555	1176.805297851562	1260.747680664062	182.716552734375	1412.060668945312	1234.670776367188	323.0881958007812	1309.081665039062	1227.943115234375	119.8153228759766	1286.111450195312	1322.073486328125	148.0860748291016	1376.886596679688	1135.217041015625	231.8583068847656	1370.363647460938	1071.97216796875	159.3470916748047	1267.93994140625	1010.456787109375	95.56760406494141	1074.713134765625	1009.032592773438	48.33203506469727	1081.481811523438	1081.263061523438	122.7586288452148	840.6808471679688	1056.893676757812	74.73616790771484	836.4816284179688	1002.975769042969	78.64219665527344	970.5772094726562	1004.461364746094	79.01860809326172	659.3334350585938	1071.032348632812	57.51340103149414	750.1265258789062	1011.963256835938	114.9367828369141	738.8361206054688	1040.840209960938	266.384033203125	1381.194213867188	1385.032348632812	266.5125427246094	1323.9033203125	1454.3037109375	292.67431640625	1053.698120117188	1506.092651367188	234.9894866943359	1044.065795898438	1431.570190429688	412.4097290039062	871.18115234375	1380.953369140625	404.6711120605469	845.014892578125	1461.010986328125	333.7002868652344	991.2828979492188	1499.03173828125	454.6778564453125	693.5948486328125	1340.45068359375	471.02490234375	764.8109130859375	1361.760620117188	449.6185913085938	746.620849609375	1426.71240234375	244.2095947265625	1568.374145507812	1296.96240234375	383.8504638671875	1577.288696289062	1137.964477539062	406.1571655273438	1581.665649414062	1227.773315429688	209.2176361083984	1551.731567382812	1156.271728515625	164.6024017333984	921.389404296875	1074.127807617188	299.7167663574219	931.3003540039062	1383.563598632812	299.79052734375	931.1929931640625	1131.743286132812	422.3030700683594	513.489013671875	1111.19482421875	345.9059448242188	635.3466186523438	1084.060791015625	409.4808654785156	56.86638259887695	1135.874633789062	418.7940368652344	277.5682373046875	1112.142578125	603.5523071289062	85.72648620605469	1209.400146484375	536.908447265625	58.95442962646484	1243.548583984375	531.25927734375	70.24266052246094	1134.111083984375	360.06640625	42.70964050292969	1189.745849609375	135.0092315673828	462.4670104980469	1398.340454101562	-39.94757843017578	46.57595062255859	1351.343505859375	113.5606994628906	338.5319519042969	1380.427978515625	158.6007385253906	43.55177307128906	1306.203369140625	102.9143981933594	41.78615951538086	1264.409423828125	63.84896469116211	36.95619964599609	1375.45654296875	-91.13963317871094	45.67330551147461	1299.20361328125	175.2315063476562	934.7633056640625	1445.50341796875	206.0826416015625	717.0354614257812	1438.377075195312	nan	nan	nan	
